<?xml version="1.0" encoding="UTF-8" standalone="no"?><!DOCTYPE svg PUBLIC "-//W3C//DTD SVG 1.1//EN" "http://www.w3.org/Graphics/SVG/1.1/DTD/svg11.dtd"><svg width="100%" height="100%" viewBox="0 0 320 320" version="1.1" xmlns="http://www.w3.org/2000/svg" xmlns:xlink="http://www.w3.org/1999/xlink" xml:space="preserve" xmlns:serif="http://www.serif.com/" style="fill-rule:evenodd;clip-rule:evenodd;stroke-linejoin:round;stroke-miterlimit:1.41421;"><path d="M0,10.667l149.333,149.333l-149.333,149.333l0,-298.666Z" style="fill:#712e2e;fill-rule:nonzero;"/><path d="M10.667,320l149.333,-149.333l149.333,149.333l-298.666,0Z" style="fill:#e54141;fill-rule:nonzero;"/><path d="M170.667,0l149.333,0l0,149.333l-149.333,-149.333Z" style="fill:#e83e46;fill-rule:nonzero;"/><path d="M10.667,0l138.666,0l65.067,65.067l-138.667,0l-65.066,-65.067Z" style="fill:#dca03a;fill-rule:nonzero;"/><path d="M90.667,80l138.666,0l-69.333,69.333l-69.333,-69.333Z" style="fill:#f6cb30;fill-rule:nonzero;"/><path d="M170.667,160l69.333,-69.333l69.333,69.333l-69.333,69.333l-69.333,-69.333Z" style="fill:#f56f6f;fill-rule:nonzero;"/><path d="M250.667,240l69.333,-69.333l0,138.666l-69.333,-69.333Z" style="fill:#9875da;fill-rule:nonzero;"/></svg>