<?xml version="1.0" encoding="UTF-8" standalone="no"?><!DOCTYPE svg PUBLIC "-//W3C//DTD SVG 1.1//EN" "http://www.w3.org/Graphics/SVG/1.1/DTD/svg11.dtd"><svg width="100%" height="100%" viewBox="0 0 986 370" version="1.1" xmlns="http://www.w3.org/2000/svg" xmlns:xlink="http://www.w3.org/1999/xlink" xml:space="preserve" xmlns:serif="http://www.serif.com/" style="fill-rule:evenodd;clip-rule:evenodd;stroke-linejoin:round;stroke-miterlimit:1.41421;"><rect id="Group" x="0" y="0.935" width="985.641" height="368.922" style="fill:none;"/><clipPath id="_clip1"><rect x="0" y="0.935" width="985.641" height="368.922"/></clipPath><g clip-path="url(#_clip1)"><g><g><ellipse cx="191.988" cy="185.396" rx="186.1" ry="184.461" style="fill:#fff;"/><g><clipPath id="_clip2"><circle cx="191.988" cy="185.396" r="169.35"/></clipPath><g clip-path="url(#_clip2)"><path d="M22.638,27.336l158.059,158.06l-158.059,158.059l0,-316.119Z" style="fill:#712e2e;fill-rule:nonzero;"/><path d="M33.928,354.746l158.06,-158.06l158.059,158.06l-316.119,0Z" style="fill:#e54141;fill-rule:nonzero;"/><path d="M203.278,16.046l158.06,0l0,158.059l-158.06,-158.059Z" style="fill:#e83e46;fill-rule:nonzero;"/><path d="M33.928,16.046l146.769,0l68.87,68.869l-146.771,0l-68.868,-68.869Z" style="fill:#dca03a;fill-rule:nonzero;"/><path d="M118.603,100.721l146.769,0l-73.384,73.384l-73.385,-73.384Z" style="fill:#f6cb30;fill-rule:nonzero;"/><path d="M203.278,185.396l73.385,-73.385l73.384,73.385l-73.384,73.384l-73.385,-73.384Z" style="fill:#f56f6f;fill-rule:nonzero;"/><path d="M287.953,270.071l73.385,-73.385l0,146.769l-73.385,-73.384Z" style="fill:#9875da;fill-rule:nonzero;"/></g></g></g><g><g><path d="M409.004,147.434l0,-81.233l58.737,0l0,9.586l-47.987,0l0,24.88l44.939,0l0,9.531l-44.939,0l0,27.65l49.871,0l0,9.586l-60.621,0Z" style="fill:#3f435b;fill-rule:nonzero;"/><path d="M476.551,147.434l21.5,-30.587l-19.893,-28.26l12.468,0l9.032,13.798c1.699,2.623 3.066,4.821 4.1,6.594c1.626,-2.438 3.122,-4.599 4.489,-6.483l9.918,-13.909l11.914,0l-20.336,27.706l21.887,31.141l-12.246,0l-12.079,-18.285l-3.214,-4.932l-15.46,23.217l-12.08,0Z" style="fill:#3f435b;fill-rule:nonzero;"/><path d="M539.942,169.987l0,-81.4l9.088,0l0,7.647c2.142,-2.992 4.562,-5.236 7.259,-6.733c2.696,-1.496 5.966,-2.244 9.807,-2.244c5.024,0 9.457,1.293 13.299,3.879c3.842,2.586 6.742,6.234 8.7,10.944c1.958,4.71 2.937,9.872 2.937,15.487c0,6.022 -1.081,11.443 -3.242,16.264c-2.161,4.821 -5.301,8.515 -9.42,11.082c-4.119,2.568 -8.45,3.851 -12.994,3.851c-3.325,0 -6.308,-0.702 -8.949,-2.105c-2.641,-1.404 -4.811,-3.177 -6.511,-5.32l0,28.648l-9.974,0Zm9.032,-51.644c0,7.573 1.533,13.17 4.599,16.79c3.067,3.62 6.779,5.43 11.138,5.43c4.433,0 8.229,-1.874 11.387,-5.624c3.159,-3.75 4.738,-9.558 4.738,-17.427c0,-7.499 -1.542,-13.114 -4.627,-16.845c-3.085,-3.731 -6.769,-5.597 -11.055,-5.597c-4.248,0 -8.007,1.986 -11.276,5.957c-3.269,3.971 -4.904,9.743 -4.904,17.316Z" style="fill:#3f435b;fill-rule:nonzero;"/><path d="M643.34,128.484l10.307,1.274c-1.626,6.021 -4.636,10.694 -9.032,14.019c-4.396,3.325 -10.011,4.987 -16.845,4.987c-8.608,0 -15.433,-2.65 -20.475,-7.951c-5.042,-5.301 -7.564,-12.736 -7.564,-22.304c0,-9.9 2.549,-17.583 7.647,-23.051c5.098,-5.467 11.71,-8.201 19.837,-8.201c7.869,0 14.297,2.679 19.284,8.035c4.987,5.356 7.48,12.892 7.48,22.608c0,0.591 -0.018,1.478 -0.055,2.66l-43.886,0c0.369,6.464 2.198,11.414 5.486,14.85c3.287,3.436 7.388,5.153 12.301,5.153c3.657,0 6.779,-0.96 9.365,-2.881c2.585,-1.921 4.636,-4.987 6.15,-9.198Zm-32.748,-16.125l32.859,0c-0.443,-4.95 -1.699,-8.663 -3.768,-11.138c-3.177,-3.842 -7.296,-5.763 -12.357,-5.763c-4.58,0 -8.432,1.533 -11.553,4.599c-3.122,3.067 -4.849,7.167 -5.181,12.302Z" style="fill:#3f435b;fill-rule:nonzero;"/><path d="M666.059,147.434l0,-58.847l8.977,0l0,8.921c2.29,-4.174 4.405,-6.926 6.344,-8.256c1.94,-1.33 4.073,-1.995 6.4,-1.995c3.362,0 6.779,1.072 10.251,3.214l-3.435,9.254c-2.438,-1.441 -4.876,-2.161 -7.314,-2.161c-2.18,0 -4.138,0.656 -5.874,1.967c-1.736,1.311 -2.974,3.131 -3.713,5.458c-1.108,3.546 -1.662,7.425 -1.662,11.636l0,30.809l-9.974,0Z" style="fill:#3f435b;fill-rule:nonzero;"/><path d="M725.737,138.513l1.441,8.811c-2.808,0.591 -5.32,0.886 -7.536,0.886c-3.62,0 -6.428,-0.572 -8.423,-1.718c-1.994,-1.145 -3.398,-2.65 -4.211,-4.516c-0.813,-1.865 -1.219,-5.79 -1.219,-11.775l0,-33.856l-7.314,0l0,-7.758l7.314,0l0,-14.573l9.919,-5.985l0,20.558l10.029,0l0,7.758l-10.029,0l0,34.41c0,2.845 0.175,4.673 0.526,5.486c0.351,0.813 0.924,1.459 1.718,1.94c0.794,0.48 1.93,0.72 3.408,0.72c1.108,0 2.567,-0.129 4.377,-0.388Z" style="fill:#3f435b;fill-rule:nonzero;"/><path d="M768.515,147.434l0,-81.233l58.736,0l0,9.586l-47.986,0l0,24.88l44.939,0l0,9.531l-44.939,0l0,27.65l49.87,0l0,9.586l-60.62,0Z" style="fill:#3f435b;fill-rule:nonzero;"/><rect x="842.49" y="66.201" width="9.974" height="81.233" style="fill:#3f435b;fill-rule:nonzero;"/><path d="M867.923,147.434l0,-58.847l8.922,0l0,8.257c1.847,-2.882 4.303,-5.2 7.37,-6.955c3.066,-1.754 6.557,-2.632 10.472,-2.632c4.359,0 7.933,0.905 10.722,2.715c2.79,1.811 4.757,4.341 5.902,7.592c4.654,-6.871 10.713,-10.307 18.175,-10.307c5.836,0 10.325,1.616 13.465,4.849c3.14,3.232 4.71,8.21 4.71,14.933l0,40.395l-9.919,0l0,-37.07c0,-3.99 -0.323,-6.862 -0.97,-8.617c-0.646,-1.754 -1.819,-3.167 -3.518,-4.239c-1.699,-1.071 -3.694,-1.606 -5.985,-1.606c-4.137,0 -7.573,1.376 -10.306,4.128c-2.734,2.752 -4.101,7.157 -4.101,13.215l0,34.189l-9.974,0l0,-38.234c0,-4.433 -0.812,-7.757 -2.438,-9.974c-1.625,-2.216 -4.285,-3.324 -7.979,-3.324c-2.808,0 -5.403,0.738 -7.785,2.216c-2.383,1.478 -4.11,3.639 -5.181,6.483c-1.072,2.845 -1.607,6.945 -1.607,12.302l0,30.531l-9.975,0Z" style="fill:#3f435b;fill-rule:nonzero;"/></g><g><path d="M404.77,280.305l7.567,-0.641c0.56,3.683 1.861,6.452 3.903,8.307c2.042,1.855 4.504,2.783 7.387,2.783c3.469,0 6.405,-1.308 8.808,-3.924c2.402,-2.615 3.603,-6.085 3.603,-10.409c0,-4.11 -1.155,-7.353 -3.463,-9.728c-2.309,-2.376 -5.332,-3.564 -9.068,-3.564c-2.323,0 -4.418,0.527 -6.286,1.582c-1.868,1.054 -3.336,2.422 -4.404,4.103l-6.766,-0.88l5.685,-30.147l29.186,0l0,6.886l-23.421,0l-3.163,15.774c3.524,-2.456 7.22,-3.683 11.09,-3.683c5.125,0 9.449,1.775 12.972,5.324c3.523,3.55 5.285,8.114 5.285,13.693c0,5.311 -1.549,9.902 -4.645,13.772c-3.763,4.751 -8.901,7.126 -15.413,7.126c-5.338,0 -9.696,-1.494 -13.072,-4.484c-3.376,-2.989 -5.305,-6.953 -5.785,-11.89Z" style="fill:#3f435b;fill-rule:nonzero;"/><path d="M450.41,280.185l7.207,-0.961c0.827,4.083 2.235,7.026 4.224,8.828c1.988,1.801 4.41,2.702 7.266,2.702c3.39,0 6.252,-1.174 8.588,-3.523c2.335,-2.349 3.503,-5.258 3.503,-8.728c0,-3.31 -1.081,-6.039 -3.243,-8.187c-2.162,-2.149 -4.911,-3.223 -8.247,-3.223c-1.362,0 -3.056,0.267 -5.085,0.801l0.801,-6.326c0.48,0.053 0.867,0.08 1.161,0.08c3.069,0 5.832,-0.801 8.287,-2.402c2.456,-1.602 3.684,-4.07 3.684,-7.407c0,-2.642 -0.895,-4.831 -2.683,-6.566c-1.788,-1.734 -4.097,-2.602 -6.926,-2.602c-2.803,0 -5.138,0.881 -7.006,2.642c-1.869,1.762 -3.07,4.404 -3.603,7.928l-7.207,-1.282c0.881,-4.831 2.883,-8.574 6.005,-11.23c3.123,-2.655 7.007,-3.983 11.651,-3.983c3.203,0 6.152,0.687 8.848,2.062c2.695,1.374 4.757,3.249 6.185,5.625c1.428,2.375 2.142,4.897 2.142,7.566c0,2.536 -0.68,4.845 -2.042,6.927c-1.361,2.081 -3.376,3.736 -6.045,4.964c3.47,0.801 6.165,2.462 8.087,4.984c1.922,2.523 2.883,5.679 2.883,9.469c0,5.124 -1.869,9.468 -5.605,13.031c-3.737,3.564 -8.461,5.345 -14.173,5.345c-5.151,0 -9.428,-1.534 -12.831,-4.604c-3.403,-3.069 -5.345,-7.046 -5.826,-11.93Z" style="fill:#3f435b;fill-rule:nonzero;"/><path d="M496.451,244.673l0,-6.926l37.994,0l0,5.605c-3.736,3.977 -7.44,9.261 -11.11,15.854c-3.67,6.592 -6.505,13.372 -8.507,20.338c-1.441,4.911 -2.362,10.289 -2.763,16.134l-7.406,0c0.08,-4.617 0.987,-10.195 2.722,-16.735c1.735,-6.539 4.224,-12.844 7.467,-18.916c3.243,-6.072 6.692,-11.19 10.349,-15.354l-28.746,0Z" style="fill:#3f435b;fill-rule:nonzero;"/><path d="M542.653,282.106l6.926,-0.64c0.587,3.256 1.708,5.618 3.363,7.086c1.655,1.468 3.776,2.202 6.365,2.202c2.216,0 4.157,-0.507 5.826,-1.521c1.668,-1.015 3.036,-2.369 4.103,-4.064c1.068,-1.695 1.962,-3.984 2.683,-6.866c0.72,-2.883 1.081,-5.819 1.081,-8.808c0,-0.32 -0.014,-0.801 -0.04,-1.441c-1.442,2.295 -3.41,4.157 -5.906,5.585c-2.495,1.428 -5.198,2.142 -8.107,2.142c-4.858,0 -8.968,-1.762 -12.331,-5.285c-3.363,-3.523 -5.044,-8.167 -5.044,-13.933c0,-5.951 1.754,-10.742 5.264,-14.372c3.51,-3.63 7.907,-5.445 13.192,-5.445c3.817,0 7.307,1.027 10.469,3.083c3.163,2.055 5.565,4.984 7.207,8.787c1.641,3.804 2.462,9.309 2.462,16.515c0,7.5 -0.814,13.472 -2.442,17.916c-1.628,4.444 -4.051,7.827 -7.267,10.149c-3.216,2.322 -6.986,3.483 -11.31,3.483c-4.591,0 -8.341,-1.274 -11.25,-3.823c-2.909,-2.549 -4.657,-6.132 -5.244,-10.75Zm29.506,-25.903c0,-4.137 -1.101,-7.42 -3.303,-9.849c-2.202,-2.428 -4.851,-3.643 -7.947,-3.643c-3.203,0 -5.992,1.308 -8.368,3.924c-2.375,2.615 -3.563,6.005 -3.563,10.169c0,3.736 1.128,6.772 3.383,9.108c2.256,2.335 5.038,3.503 8.348,3.503c3.336,0 6.078,-1.168 8.227,-3.503c2.149,-2.336 3.223,-5.572 3.223,-9.709Z" style="fill:#3f435b;fill-rule:nonzero;"/><path d="M598.262,263.85c-2.989,-1.094 -5.205,-2.656 -6.646,-4.684c-1.441,-2.029 -2.162,-4.457 -2.162,-7.287c0,-4.27 1.535,-7.86 4.604,-10.769c3.07,-2.91 7.153,-4.364 12.251,-4.364c5.125,0 9.248,1.488 12.371,4.464c3.123,2.976 4.684,6.599 4.684,10.87c0,2.722 -0.714,5.091 -2.142,7.106c-1.427,2.015 -3.596,3.57 -6.505,4.664c3.603,1.174 6.345,3.069 8.227,5.685c1.882,2.616 2.822,5.738 2.822,9.368c0,5.018 -1.774,9.235 -5.324,12.652c-3.55,3.416 -8.221,5.124 -14.013,5.124c-5.792,0 -10.462,-1.715 -14.012,-5.144c-3.55,-3.43 -5.325,-7.707 -5.325,-12.832c0,-3.817 0.968,-7.013 2.903,-9.588c1.935,-2.576 4.691,-4.331 8.267,-5.265Zm-1.441,-12.211c0,2.776 0.894,5.045 2.682,6.806c1.788,1.762 4.11,2.643 6.966,2.643c2.776,0 5.051,-0.875 6.826,-2.623c1.775,-1.748 2.663,-3.89 2.663,-6.426c0,-2.642 -0.914,-4.864 -2.743,-6.665c-1.828,-1.802 -4.103,-2.703 -6.826,-2.703c-2.749,0 -5.031,0.881 -6.846,2.642c-1.815,1.762 -2.722,3.871 -2.722,6.326Zm-2.322,27.104c0,2.055 0.487,4.044 1.461,5.966c0.974,1.921 2.422,3.409 4.344,4.464c1.922,1.054 3.99,1.581 6.205,1.581c3.443,0 6.286,-1.108 8.528,-3.323c2.242,-2.215 3.363,-5.031 3.363,-8.448c0,-3.469 -1.154,-6.339 -3.463,-8.607c-2.309,-2.269 -5.198,-3.403 -8.668,-3.403c-3.39,0 -6.199,1.121 -8.427,3.363c-2.229,2.242 -3.343,5.044 -3.343,8.407Z" style="fill:#3f435b;fill-rule:nonzero;"/><path d="M659.917,295.678l-7.207,0l0,-45.921c-1.734,1.655 -4.01,3.31 -6.826,4.965c-2.815,1.655 -5.344,2.896 -7.586,3.723l0,-6.966c4.03,-1.895 7.553,-4.19 10.569,-6.886c3.016,-2.696 5.151,-5.312 6.406,-7.847l4.644,0l0,58.932Z" style="fill:#3f435b;fill-rule:nonzero;"/><path d="M678.373,280.305l7.567,-0.641c0.561,3.683 1.862,6.452 3.903,8.307c2.042,1.855 4.505,2.783 7.387,2.783c3.47,0 6.406,-1.308 8.808,-3.924c2.402,-2.615 3.603,-6.085 3.603,-10.409c0,-4.11 -1.154,-7.353 -3.463,-9.728c-2.309,-2.376 -5.331,-3.564 -9.068,-3.564c-2.322,0 -4.417,0.527 -6.286,1.582c-1.868,1.054 -3.336,2.422 -4.404,4.103l-6.766,-0.88l5.685,-30.147l29.186,0l0,6.886l-23.42,0l-3.163,15.774c3.523,-2.456 7.22,-3.683 11.09,-3.683c5.124,0 9.448,1.775 12.971,5.324c3.523,3.55 5.285,8.114 5.285,13.693c0,5.311 -1.548,9.902 -4.644,13.772c-3.764,4.751 -8.901,7.126 -15.414,7.126c-5.338,0 -9.695,-1.494 -13.072,-4.484c-3.376,-2.989 -5.304,-6.953 -5.785,-11.89Z" style="fill:#3f435b;fill-rule:nonzero;"/><path d="M723.974,280.305l7.567,-0.641c0.56,3.683 1.861,6.452 3.903,8.307c2.042,1.855 4.504,2.783 7.387,2.783c3.469,0 6.405,-1.308 8.807,-3.924c2.403,-2.615 3.604,-6.085 3.604,-10.409c0,-4.11 -1.155,-7.353 -3.463,-9.728c-2.309,-2.376 -5.332,-3.564 -9.068,-3.564c-2.323,0 -4.418,0.527 -6.286,1.582c-1.868,1.054 -3.336,2.422 -4.404,4.103l-6.766,-0.88l5.685,-30.147l29.186,0l0,6.886l-23.421,0l-3.163,15.774c3.524,-2.456 7.22,-3.683 11.09,-3.683c5.125,0 9.449,1.775 12.972,5.324c3.523,3.55 5.284,8.114 5.284,13.693c0,5.311 -1.548,9.902 -4.644,13.772c-3.763,4.751 -8.901,7.126 -15.413,7.126c-5.338,0 -9.696,-1.494 -13.072,-4.484c-3.376,-2.989 -5.305,-6.953 -5.785,-11.89Z" style="fill:#3f435b;fill-rule:nonzero;"/><path d="M770.055,244.673l0,-6.926l37.994,0l0,5.605c-3.737,3.977 -7.44,9.261 -11.11,15.854c-3.67,6.592 -6.506,13.372 -8.508,20.338c-1.441,4.911 -2.362,10.289 -2.762,16.134l-7.407,0c0.08,-4.617 0.988,-10.195 2.723,-16.735c1.734,-6.539 4.223,-12.844 7.466,-18.916c3.243,-6.072 6.693,-11.19 10.349,-15.354l-28.745,0Z" style="fill:#3f435b;fill-rule:nonzero;"/></g></g></g></g></svg>